<svg width="17" height="16" viewBox="0 0 17 16" fill="none" xmlns="http://www.w3.org/2000/svg">
<g clip-path="url(#clip0_445_32)">
<path fill-rule="evenodd" clip-rule="evenodd" d="M8.47616 0.163269C4.06555 0.163269 0.5 3.75511 0.5 8.1987C0.5 11.7507 2.78457 14.7574 5.95388 15.8216C6.35012 15.9016 6.49527 15.6487 6.49527 15.4359C6.49527 15.2496 6.4822 14.6111 6.4822 13.9458C4.26343 14.4248 3.80139 12.9879 3.80139 12.9879C3.44482 12.0567 2.91649 11.8173 2.91649 11.8173C2.19029 11.3251 2.96939 11.3251 2.96939 11.3251C3.77494 11.3783 4.19763 12.1499 4.19763 12.1499C4.91061 13.3737 6.05951 13.0279 6.52171 12.815C6.58767 12.2962 6.7991 11.937 7.02359 11.7375C5.25396 11.5512 3.39208 10.8594 3.39208 7.7729C3.39208 6.89486 3.70882 6.17649 4.21069 5.6178C4.13151 5.41829 3.85412 4.59331 4.29004 3.48915C4.29004 3.48915 4.96351 3.27625 6.48204 4.31396C7.13218 4.13807 7.80265 4.04859 8.47616 4.04784C9.14963 4.04784 9.83616 4.14106 10.4701 4.31396C11.9888 3.27625 12.6623 3.48915 12.6623 3.48915C13.0982 4.59331 12.8207 5.41829 12.7415 5.6178C13.2566 6.17649 13.5602 6.89486 13.5602 7.7729C13.5602 10.8594 11.6984 11.5378 9.91551 11.7375C10.2061 11.9902 10.4569 12.4691 10.4569 13.2274C10.4569 14.305 10.4438 15.1698 10.4438 15.4358C10.4438 15.6487 10.5891 15.9016 10.9852 15.8217C14.1545 14.7572 16.4391 11.7507 16.4391 8.1987C16.4522 3.75511 12.8736 0.163269 8.47616 0.163269Z" fill="#FCF7FC"/>
</g>
<defs>
<clipPath id="clip0_445_32">
<rect width="16" height="15.6735" fill="white" transform="translate(0.5 0.163269)"/>
</clipPath>
</defs>
</svg>
