<svg width="17" height="16" viewBox="0 0 17 16" fill="none" xmlns="http://www.w3.org/2000/svg">
<mask id="mask0_406_104" style="mask-type:alpha" maskUnits="userSpaceOnUse" x="0" y="0" width="17" height="16">
<path d="M15.5 5.39999L13.8333 6.31666L12.1666 7.89999V13.3333H14.5C15.0523 13.3333 15.5 12.8857 15.5 12.3333V5.39999Z" fill="#4CAF50"/>
<path d="M1.5 5.39999L2.70467 5.96999L4.83333 7.89999V13.3333H2.5C1.94767 13.3333 1.5 12.8857 1.5 12.3333V5.39999Z" fill="#1E88E5"/>
<path d="M12.1667 3.73334L8.5 6.48334L4.83333 3.73334L4.5 5.66667L4.83333 7.9L8.5 10.65L12.1667 7.9L12.5 5.66667L12.1667 3.73334Z" fill="#E53935"/>
<path d="M1.5 4.09934V5.40001L4.83333 7.90001V3.73334L3.792 2.95301C3.544 2.76701 3.24267 2.66667 2.93267 2.66667C2.14133 2.66667 1.5 3.30801 1.5 4.09934Z" fill="#C62828"/>
<path d="M15.5 4.09934V5.40001L12.1666 7.90001V3.73334L13.208 2.95301C13.456 2.76701 13.7573 2.66667 14.0673 2.66667C14.8586 2.66667 15.5 3.30801 15.5 4.09934Z" fill="#FBC02D"/>
</mask>
<g mask="url(#mask0_406_104)">
<rect x="0.666626" y="1.33333" width="16" height="13" fill="#FCF7FC"/>
</g>
</svg>
