<svg width="17" height="16" viewBox="0 0 17 16" fill="none" xmlns="http://www.w3.org/2000/svg">
<mask id="mask0_406_100" style="mask-type:alpha" maskUnits="userSpaceOnUse" x="0" y="0" width="17" height="16">
<path d="M13.62 1.28H3.38003C2.49683 1.28 1.78003 1.9968 1.78003 2.88V13.12C1.78003 14.0032 2.49683 14.72 3.38003 14.72H13.62C14.5032 14.72 15.22 14.0032 15.22 13.12V2.88C15.22 1.9968 14.5032 1.28 13.62 1.28ZM5.94003 6.4V12.48H4.02003V6.4H5.94003ZM4.02003 4.6304C4.02003 4.1824 4.40403 3.84 4.98003 3.84C5.55603 3.84 5.91763 4.1824 5.94003 4.6304C5.94003 5.0784 5.58163 5.44 4.98003 5.44C4.40403 5.44 4.02003 5.0784 4.02003 4.6304ZM12.98 12.48H11.06C11.06 12.48 11.06 9.5168 11.06 9.28C11.06 8.64 10.74 8 9.94003 7.9872H9.91443C9.14003 7.9872 8.82003 8.6464 8.82003 9.28C8.82003 9.5712 8.82003 12.48 8.82003 12.48H6.90003V6.4H8.82003V7.2192C8.82003 7.2192 9.43763 6.4 10.6792 6.4C11.9496 6.4 12.98 7.2736 12.98 9.0432V12.48Z" fill="black"/>
</mask>
<g mask="url(#mask0_406_100)">
<rect x="1.30005" width="14.08" height="15.36" fill="#FCF7FC"/>
</g>
</svg>
